<?xml version="1.0" standalone="no"?>
<!DOCTYPE svg PUBLIC "-//W3C//DTD SVG 20010904//EN"
 "http://www.w3.org/TR/2001/REC-SVG-20010904/DTD/svg10.dtd">
<svg version="1.0" xmlns="http://www.w3.org/2000/svg"
 width="64.000000pt" height="64.000000pt" viewBox="0 0 64.000000 64.000000"
 preserveAspectRatio="xMidYMid meet">

<g transform="translate(0.000000,64.000000) scale(0.100000,-0.100000)"
fill="#000000" stroke="none">
<path d="M185 520 l-59 -60 51 0 c62 0 75 13 71 75 l-3 46 -60 -61z"/>
<path d="M278 523 c-6 -73 -28 -93 -104 -93 l-54 0 0 -185 0 -185 200 0 200 0
0 260 0 260 -119 0 -119 0 -4 -57z m180 -55 c-5 -14 -118 -24 -145 -14 -33 13
4 26 73 26 56 0 75 -3 72 -12z m0 -90 c-6 -18 -270 -18 -275 0 -4 9 28 12 137
12 109 0 141 -3 138 -12z m0 -90 c-6 -18 -270 -18 -275 0 -4 9 28 12 137 12
109 0 141 -3 138 -12z m-209 -77 c9 -6 12 -19 9 -36 -4 -18 -2 -23 5 -16 10
10 67 -15 67 -31 0 -13 -21 -20 -33 -10 -8 7 -29 7 -57 2 -60 -12 -60 -12 -60
5 0 8 6 15 14 15 9 0 12 8 8 25 -2 14 1 32 8 40 14 17 20 18 39 6z"/>
</g>
</svg>
